<?xml version="1.0" encoding="UTF-8"?>
<svg width="135px" height="134px" viewBox="0 0 135 134" version="1.1" xmlns="http://www.w3.org/2000/svg" xmlns:xlink="http://www.w3.org/1999/xlink">
    <!-- Generator: Sketch 52.3 (67297) - http://www.bohemiancoding.com/sketch -->
    <title>Group Copy</title>
    <desc>Created with Sketch.</desc>
    <g id="Page-1" stroke="none" stroke-width="1" fill="none" fill-rule="evenodd" opacity="0.799897693">
        <g id="Group-Copy" transform="translate(1.000000, 2.000000)" stroke="#111" stroke-width="4">
            <path d="M66.66,129.386139 C102.746286,129.386139 132,100.422065 132,64.6930693 C132,28.9640737 102.746286,0 66.66,0 C30.5737144,0 1.32,28.9640737 1.32,64.6930693 C1.32,100.422065 30.5737144,129.386139 66.66,129.386139 Z M1.62295082,58.9378504 L1.62295082,132 M131.819672,58.9378504 L131.819672,132 M116.197921,21.8696806 L66.6199742,115.938924 L14.4262295,91.7376926 L65.3120752,23.0489623 M131.278689,58.6229274 L66.8191409,115.624001 L1.20459016,57.3159967 M66.5409836,22.0918526 L66.5409836,130.425385 M17.6721311,21.6270064 L115.770492,21.6270064" id="Combined-Shape"></path>
        </g>
    </g>
</svg>